<svg t="1638959868639" class="icon" viewBox="0 0 1024 1024" version="1.1" xmlns="http://www.w3.org/2000/svg" p-id="1070" width="200" height="200"><path d="M56.45312 108.58496a87.18336 87.18336 0 0 0-0.9728 56.79104l241.23392 741.28384a87.18336 87.18336 0 0 0 109.8752 55.92064l5.0176-1.80224a87.18336 87.18336 0 0 0 43.29472-37.14048l160-274.1248L916.48 482.43712a87.18336 87.18336 0 0 0-12.4416-158.17728l-735.8464-267.776a87.18336 87.18336 0 0 0-109.9776 47.65696l-1.7408 4.44416zM197.632 199.70048l586.73152 213.53472-238.76608 132.3008-5.03808 3.0208a87.18336 87.18336 0 0 0-28.0064 29.2864L389.33504 788.87936 197.62176 199.70048z" fill="#2E3654" p-id="1071"></path><path d="M922.55232 621.89568a24.90368 24.90368 0 0 1 25.62048 42.62912l-2.49856 1.49504-198.22592 103.85408a24.90368 24.90368 0 0 1-25.61024-42.62912l2.48832-1.49504 198.22592-103.85408z" fill="#20EE95" p-id="1072"></path></svg>